<svg width="36" height="36" viewBox="0 0 36 36" fill="none" xmlns="http://www.w3.org/2000/svg">
<path fill-rule="evenodd" clip-rule="evenodd" d="M19.5 8C17.015 8 15 10.015 15 12.5V22.5C15 23.881 16.119 25 17.5 25C18.881 25 20 23.881 20 22.5V12H19V22.5C19 23.327 18.327 24 17.5 24C16.673 24 16 23.327 16 22.5V12.5C16 10.57 17.57 9 19.5 9C21.43 9 23 10.57 23 12.5V22.5C23 25.533 20.532 28 17.5 28C14.468 28 12 25.533 12 22.5V16H11V22.5C11 26.09 13.91 29 17.5 29C21.09 29 24 26.09 24 22.5V12.5C24 10.015 21.985 8 19.5 8Z" fill="#121317"/>
</svg>
