<svg width="36" height="36" viewBox="0 0 36 36" fill="none" xmlns="http://www.w3.org/2000/svg">
<path fill-rule="evenodd" clip-rule="evenodd" d="M29 18.51V12H23L22 10H14L13 12H12V11H9V12H7V26H29V18.51ZM28 25H8V20H14.14C14.6134 21.742 16.1949 22.951 18 22.951C19.8051 22.951 21.3866 21.742 21.86 20H28V25ZM21 19.52C20.9673 19.6827 20.9239 19.843 20.87 20C20.4394 21.1865 19.3122 21.9765 18.05 21.9765C16.7878 21.9765 15.6606 21.1865 15.23 20C15.1761 19.843 15.1327 19.6827 15.1 19.52C15.0514 19.35 15.0179 19.1759 15 19C15 17.3431 16.3431 16 18 16C19.6569 16 21 17.3431 21 19C21.0151 19.173 21.0151 19.347 21 19.52ZM28 19H22C22 16.7909 20.2091 15 18 15C15.7909 15 14 16.7909 14 19H8V13H13.5L14.5 11H21.5L22.5 13H28V19Z" fill="#121317"/>
</svg>
