<svg width="36" height="36" viewBox="0 0 36 36" fill="none" xmlns="http://www.w3.org/2000/svg">
<path fill-rule="evenodd" clip-rule="evenodd" d="M17.9997 14.9996C18.5517 14.9996 18.9997 15.4476 18.9997 15.9996C18.9997 16.5516 18.5517 16.9996 17.9997 16.9996C17.4477 16.9996 16.9997 16.5516 16.9997 15.9996C16.9997 15.4476 17.4477 14.9996 17.9997 14.9996ZM21.9997 14.9996C22.5517 14.9996 22.9997 15.4476 22.9997 15.9996C22.9997 16.5516 22.5517 16.9996 21.9997 16.9996C21.4477 16.9996 20.9997 16.5516 20.9997 15.9996C20.9997 15.4476 21.4477 14.9996 21.9997 14.9996ZM13.9997 14.9996C14.5517 14.9996 14.9997 15.4476 14.9997 15.9996C14.9997 16.5516 14.5517 16.9996 13.9997 16.9996C13.4477 16.9996 12.9997 16.5516 12.9997 15.9996C12.9997 15.4476 13.4477 14.9996 13.9997 14.9996ZM23.924 22.359C26.328 21.25 28 18.816 28 16C28 12.14 24.86 9 21 9H15C11.14 9 8 12.14 8 16C8 19.52 10.612 22.442 14 22.928L13.982 27.2L23.924 22.359ZM29 16C29 19.186 27.132 21.928 24.437 23.215L24.442 23.223L12.982 28.799V23.734C9.542 22.839 7 19.719 7 16C7 11.582 10.581 8 15 8H21C25.418 8 29 11.582 29 16Z" fill="#121317"/>
</svg>
