<svg width="36" height="36" viewBox="0 0 36 36" fill="none" xmlns="http://www.w3.org/2000/svg">
<path fill-rule="evenodd" clip-rule="evenodd" d="M27 18.5C27 23.7467 22.7467 28 17.5 28C12.2533 28 8 23.7467 8 18.5C8 13.2533 12.2533 9 17.5 9C22.7467 9 27 13.2533 27 18.5ZM7 18.5C7 24.299 11.701 29 17.5 29C23.299 29 28 24.299 28 18.5C28 12.701 23.299 8 17.5 8C11.701 8 7 12.701 7 18.5ZM22.6568 14.1716L15.5858 21.2426L12.0502 17.7071L11.3431 18.4142L15.5858 22.6569L16.2929 21.9497L23.364 14.8787L22.6568 14.1716Z" fill="#121317"/>
</svg>
