<svg width="36" height="36" viewBox="0 0 36 36" fill="none" xmlns="http://www.w3.org/2000/svg">
<path fill-rule="evenodd" clip-rule="evenodd" d="M17.523 22C18.627 22 19.523 22.896 19.523 24C19.523 25.104 18.627 26 17.523 26C16.419 26 15.523 25.104 15.523 24C15.523 22.896 16.419 22 17.523 22ZM17.523 10C23.013 10 27.752 13.168 30.046 17.77L28.308 18.773C26.36 14.771 22.264 12 17.523 12C12.781 12 8.685 14.771 6.738 18.773L5 17.77C7.294 13.168 12.032 10 17.523 10ZM17.523 14C21.533 14 24.982 16.366 26.576 19.773L24.838 20.776C23.596 17.967 20.787 16 17.523 16C14.259 16 11.45 17.967 10.207 20.776L8.469 19.773C10.064 16.366 13.512 14 17.523 14ZM17.523 18C20.052 18 22.212 19.568 23.094 21.783L21.321 22.807C20.81 21.187 19.31 20 17.523 20C15.735 20 14.236 21.187 13.725 22.807L11.951 21.783C12.834 19.568 14.993 18 17.523 18Z" fill="#121317"/>
</svg>
