<svg width="36" height="36" viewBox="0 0 36 36" fill="none" xmlns="http://www.w3.org/2000/svg">
<path fill-rule="evenodd" clip-rule="evenodd" d="M27 23V10C27 9.448 26.553 9 26 9H13C12.447 9 12 9.448 12 10V11H23C24.104 11 25 11.897 25 13V24H26C26.553 24 27 23.552 27 23ZM24 26V13C24 12.448 23.553 12 23 12H10C9.447 12 9 12.448 9 13V26C9 26.552 9.447 27 10 27H23C23.553 27 24 26.552 24 26ZM26 8C27.104 8 28 8.897 28 10V23C28 24.103 27.104 25 26 25H25V26C25 27.103 24.104 28 23 28H10C8.896 28 8 27.103 8 26V13C8 11.897 8.896 11 10 11H11V10C11 8.897 11.896 8 13 8H26ZM17 16V19H20V20H17V23H16V20H13V19H16V16H17Z" fill="#121317"/>
</svg>
