<svg width="36" height="36" viewBox="0 0 36 36" fill="none" xmlns="http://www.w3.org/2000/svg">
<path fill-rule="evenodd" clip-rule="evenodd" d="M28 27V9C28 8.448 27.553 8 27 8H9C8.447 8 8 8.448 8 9V27C8 27.552 8.447 28 9 28H27C27.553 28 28 27.552 28 27ZM27 7C28.104 7 29 7.897 29 9V27C29 28.103 28.104 29 27 29H9C7.896 29 7 28.103 7 27V9C7 7.897 7.896 7 9 7H27ZM22.1465 13.1465L22.8535 13.8535L18.7075 18.0005L22.8535 22.1465L22.1465 22.8535L18.0005 18.7075L13.8535 22.8535L13.1465 22.1465L17.2925 18.0005L13.1465 13.8535L13.8535 13.1465L18.0005 17.2925L22.1465 13.1465Z" fill="#121317"/>
</svg>
