<svg width="36" height="36" viewBox="0 0 36 36" fill="none" xmlns="http://www.w3.org/2000/svg">
<path fill-rule="evenodd" clip-rule="evenodd" d="M18.112 11C23.29 11 27.801 13.819 30.223 18C27.801 22.181 23.29 25 18.112 25C12.932 25 8.422 22.181 6 18C8.422 13.819 12.932 11 18.112 11ZM18.112 12C13.693 12 9.553 14.285 7.171 18C9.553 21.715 13.693 24 18.112 24C22.53 24 26.669 21.715 29.052 18C26.669 14.285 22.53 12 18.112 12ZM18.112 15C19.768 15 21.112 16.343 21.112 18C21.112 19.657 19.768 21 18.112 21C16.455 21 15.112 19.657 15.112 18C15.112 16.343 16.455 15 18.112 15ZM18.112 16C17.008 16 16.112 16.897 16.112 18C16.112 19.103 17.008 20 18.112 20C19.215 20 20.112 19.103 20.112 18C20.112 16.897 19.215 16 18.112 16Z" fill="#121317"/>
</svg>
