<svg width="36" height="36" viewBox="0 0 36 36" fill="none" xmlns="http://www.w3.org/2000/svg">
<path fill-rule="evenodd" clip-rule="evenodd" d="M10 12C9.44772 12 9 12.4477 9 13V23C9 23.5523 9.44772 24 10 24H26C26.5523 24 27 23.5523 27 23V13C27 12.4477 26.5523 12 26 12H10ZM10 11H26C27.1046 11 28 11.8954 28 13V23C28 24.1046 27.1046 25 26 25H10C8.89543 25 8 24.1046 8 23V13C8 11.8954 8.89543 11 10 11ZM18 19C17.4477 19 17 18.5523 17 18C17 17.4477 17.4477 17 18 17C18.5523 17 19 17.4477 19 18C19 18.5523 18.5523 19 18 19ZM14 19C13.4477 19 13 18.5523 13 18C13 17.4477 13.4477 17 14 17C14.5523 17 15 17.4477 15 18C15 18.5523 14.5523 19 14 19ZM22 19C21.4477 19 21 18.5523 21 18C21 17.4477 21.4477 17 22 17C22.5523 17 23 17.4477 23 18C23 18.5523 22.5523 19 22 19Z" fill="#121317"/>
</svg>
