<svg width="36" height="36" viewBox="0 0 36 36" fill="none" xmlns="http://www.w3.org/2000/svg">
<path fill-rule="evenodd" clip-rule="evenodd" d="M9 9H27C28.1046 9 29 9.89543 29 11V26C29 27.1046 28.1046 28 27 28H9C7.89543 28 7 27.1046 7 26V11C7 9.89543 7.89543 9 9 9ZM9 10C8.44772 10 8 10.4477 8 11V26C8 26.5523 8.44772 27 9 27H27C27.5523 27 28 26.5523 28 26V11C28 10.4477 27.5523 10 27 10H9ZM22 19V23H21V14H22H25V15H22V18H25V19H22ZM18 14H19V23H18V14ZM15 19H13V18H15H16V20.5C16 21.8807 14.8807 23 13.5 23C12.1193 23 11 21.8807 11 20.5V16.5C11 15.1193 12.1193 14 13.5 14C14.7095 14 15.7184 14.8589 15.95 16H14.9146C14.7087 15.4174 14.1531 15 13.5 15C12.6716 15 12 15.6716 12 16.5V20.5C12 21.3284 12.6716 22 13.5 22C14.3284 22 15 21.3284 15 20.5V19Z" fill="#121317"/>
</svg>
