<svg width="36" height="36" viewBox="0 0 36 36" fill="none" xmlns="http://www.w3.org/2000/svg">
<path fill-rule="evenodd" clip-rule="evenodd" d="M8.5 18C8.5 16.622 9.621 15.5 11 15.5V16.5C10.173 16.5 9.5 17.173 9.5 18H8.5ZM21.5 18C21.5 16.622 22.621 15.5 24 15.5V16.5C23.173 16.5 22.5 17.173 22.5 18H21.5ZM24.5 23C26.981 23 29 20.981 29 18.5C29 16.019 26.981 14 24.5 14C22.019 14 20 16.019 20 18.5C20 20.981 22.019 23 24.5 23ZM11.5 23C13.981 23 16 20.981 16 18.5C16 16.019 13.981 14 11.5 14C9.019 14 7 16.019 7 18.5C7 20.981 9.019 23 11.5 23ZM31 18V19H29.975C29.722 21.803 27.369 24 24.5 24C21.463 24 19 21.538 19 18.5C19 18.331 19.01 18.165 19.025 18H16.975C16.99 18.165 17 18.331 17 18.5C17 21.538 14.537 24 11.5 24C8.631 24 6.278 21.803 6.025 19H5V18H6.025C6.278 15.197 8.631 13 11.5 13C14.017 13 16.134 14.692 16.787 17H19.213C19.866 14.692 21.983 13 24.5 13C27.369 13 29.722 15.197 29.975 18H31Z" fill="#121317"/>
</svg>
