<svg width="36" height="36" viewBox="0 0 36 36" fill="none" xmlns="http://www.w3.org/2000/svg">
<path d="M23.1595 17.5022C23.6804 16.9176 24 16.1476 24 15.3C24 15.1119 23.9804 14.9287 23.9509 14.75C23.6907 13.1897 22.3484 12 20.7273 12C19.5884 12 18.5858 12.5868 18 13.4773C17.4136 12.5868 16.4111 12 15.2727 12C13.6511 12 12.3087 13.1897 12.0485 14.75C12.0191 14.9287 12 15.1119 12 15.3C12 16.1476 12.3191 16.9181 12.8405 17.5022C12.8902 17.5583 12.9404 17.6138 12.9944 17.6661L18.0049 23L23.0073 17.6639C23.0602 17.6122 23.1104 17.5578 23.1595 17.5022ZM23.7368 18.3478L18.0057 24.4614L17.2761 23.6847L12.299 18.3848C12.2294 18.3174 12.1714 18.2551 12.0946 18.1682C11.3948 17.3844 11 16.3722 11 15.3C11 15.0655 11.0215 14.8321 11.0622 14.5855C11.4052 12.5283 13.1767 11 15.2727 11C16.2908 11 17.2479 11.3619 17.9998 11.9903C18.7516 11.3618 19.7089 11 20.7273 11C22.8229 11 24.5943 12.5284 24.9376 14.5874C24.9782 14.834 25 15.0661 25 15.3C25 16.3707 24.6058 17.3814 23.9074 18.1659C23.8373 18.2452 23.7738 18.313 23.7368 18.3478Z" fill="#B8B7B6"/>
</svg>
