<svg width="36" height="36" viewBox="0 0 36 36" fill="none" xmlns="http://www.w3.org/2000/svg">
<path fill-rule="evenodd" clip-rule="evenodd" d="M18 28C23.5228 28 28 23.5228 28 18C28 12.4772 23.5228 8 18 8C12.4772 8 8 12.4772 8 18C8 23.5228 12.4772 28 18 28ZM18 29C11.9249 29 7 24.0751 7 18C7 11.9249 11.9249 7 18 7C24.0751 7 29 11.9249 29 18C29 24.0751 24.0751 29 18 29ZM16.5858 21.2426L23.6569 14.1716L24.364 14.8787L17.2929 21.9497L16.5858 22.6569L12.3431 18.4142L13.0503 17.7071L16.5858 21.2426Z" fill="#121317"/>
</svg>
