<svg width="36" height="36" viewBox="0 0 36 36" fill="none" xmlns="http://www.w3.org/2000/svg">
<path fill-rule="evenodd" clip-rule="evenodd" d="M17.0004 17V7H18.0004V17H17.0004ZM21.932 7.9951C25.51 9.6701 28 13.2951 28 17.5001C28 23.2891 23.289 28.0001 17.5 28.0001C11.711 28.0001 7 23.2891 7 17.5001C7 13.2951 9.491 9.6701 13.069 7.9951L13.489 8.8971C10.25 10.4111 8 13.6891 8 17.5001C8 22.7461 12.254 27.0001 17.5 27.0001C22.746 27.0001 27 22.7461 27 17.5001C27 13.6891 24.75 10.4111 21.512 8.8971L21.932 7.9951Z" fill="#121317"/>
</svg>
