<svg width="36" height="36" viewBox="0 0 36 36" fill="none" xmlns="http://www.w3.org/2000/svg">
<path fill-rule="evenodd" clip-rule="evenodd" d="M25.0783 16.1799C24.8279 16.0537 24.5517 15.9879 24.2718 15.9879H13.6257C13.3609 15.9879 13.1236 15.7878 13.1097 15.5211C13.095 15.2365 13.3194 15.0013 13.5982 15.0013H25.1327L27.782 10.7263H13.2137C10.4785 10.7263 8.17357 12.9837 8.21873 15.7419C8.24971 17.6379 9.34203 19.2726 10.9218 20.0709C10.9233 20.0716 10.9246 20.0724 10.9261 20.0731C11.1843 20.2031 11.4716 20.263 11.7601 20.263H22.4019C22.6669 20.263 22.9042 20.4631 22.9179 20.7299C22.9326 21.0144 22.7083 21.2495 22.4295 21.2495H10.8674L8.21808 25.5246H22.7864C25.5216 25.5246 27.8264 23.2672 27.7814 20.509C27.7504 18.6131 26.6581 16.9782 25.0783 16.1799Z" fill="#05A851"/>
</svg>
