<svg width="36" height="36" viewBox="0 0 36 36" fill="none" xmlns="http://www.w3.org/2000/svg">
<path fill-rule="evenodd" clip-rule="evenodd" d="M26 8C27.104 8 28 8.897 28 10V24C28 25.103 27.104 26 26 26H24V25.713V25H26C26.553 25 27 24.552 27 24V10C27 9.448 26.553 9 26 9H12C11.447 9 11 9.448 11 10V11V12H10V11V10C10 8.897 10.896 8 12 8H26ZM17.857 29V28H18.857V29H17.857ZM19.857 29V28H20.857V29H19.857ZM7 24.429V23.429H8V24.429H7ZM24 27V26.713H25V27C25 27.48 24.827 27.945 24.513 28.308L23.756 27.654C23.818 27.582 23.867 27.499 23.906 27.411C23.916 27.391 23.922 27.369 23.93 27.349C23.971 27.239 24 27.124 24 27ZM9.857 29V28H10.857V29H9.857ZM7 22.429V21.429H8V22.429H7ZM15.857 29V28H16.857V29H15.857ZM7 26.429V25.429H8V26.429H7ZM13.857 29V28H14.857V29H13.857ZM11.857 29V28H12.857V29H11.857ZM21.857 29V28H22.857V29H21.857ZM8.5703 27.894C8.6163 27.916 8.6673 27.928 8.7163 27.943C8.7643 27.957 8.8073 27.983 8.8583 27.99L8.7183 28.98C8.0413 28.884 7.4663 28.455 7.1813 27.832L8.0903 27.416C8.1113 27.462 8.1353 27.505 8.1623 27.547H8.1633C8.1643 27.549 8.1653 27.55 8.1663 27.552C8.1663 27.553 8.1673 27.553 8.1673 27.554C8.1683 27.555 8.1703 27.557 8.1703 27.558V27.559C8.1723 27.56 8.1723 27.561 8.1743 27.563C8.1743 27.564 8.1743 27.564 8.1743 27.565C8.1753 27.566 8.1753 27.567 8.1763 27.568C8.1773 27.569 8.1773 27.569 8.1773 27.57C8.1773 27.57 8.1783 27.571 8.1793 27.571V27.573C8.1803 27.573 8.1813 27.574 8.1813 27.574V27.575V27.576C8.1823 27.576 8.1823 27.576 8.1823 27.576C8.1833 27.577 8.1833 27.577 8.1833 27.577V27.578C8.1833 27.578 8.1833 27.579 8.1843 27.579C8.1843 27.579 8.1843 27.579 8.1853 27.579V27.581C8.1853 27.581 8.1863 27.582 8.1873 27.582V27.584C8.1873 27.584 8.1873 27.584 8.1883 27.584L8.1893 27.585V27.586V27.587C8.1903 27.587 8.1903 27.587 8.1903 27.587C8.1913 27.588 8.1913 27.589 8.1923 27.59C8.1933 27.59 8.1933 27.59 8.1933 27.591V27.592C8.1943 27.592 8.1943 27.592 8.1953 27.593V27.595C8.1963 27.595 8.1963 27.595 8.1963 27.595C8.1973 27.595 8.1973 27.596 8.1973 27.596V27.597C8.1973 27.597 8.1973 27.597 8.1983 27.598C8.1983 27.598 8.1983 27.598 8.1993 27.598V27.599V27.6C8.2003 27.6 8.2003 27.601 8.2013 27.601V27.602L8.2023 27.603H8.2033V27.605H8.2043C8.2043 27.606 8.2053 27.606 8.2053 27.606V27.607V27.608C8.2063 27.608 8.2063 27.608 8.2063 27.608C8.2073 27.608 8.2073 27.609 8.2073 27.609C8.2073 27.61 8.2083 27.611 8.2093 27.611V27.612C8.2093 27.613 8.2093 27.613 8.2103 27.613C8.2103 27.613 8.2113 27.613 8.2113 27.614C8.2113 27.615 8.2123 27.615 8.2133 27.616V27.617V27.618C8.2143 27.618 8.2143 27.618 8.2143 27.618C8.2153 27.619 8.2153 27.619 8.2153 27.619V27.62C8.2163 27.621 8.2163 27.621 8.2163 27.622C8.2163 27.623 8.2173 27.623 8.2173 27.623C8.2173 27.623 8.2173 27.623 8.2183 27.623V27.624C8.2193 27.626 8.2203 27.627 8.2213 27.628C8.2223 27.628 8.2223 27.629 8.2223 27.629C8.2243 27.631 8.2243 27.632 8.2263 27.634C8.2263 27.634 8.2263 27.634 8.2273 27.635C8.2283 27.636 8.2293 27.637 8.2303 27.638C8.2323 27.64 8.2333 27.642 8.2343 27.644H8.2353L8.2363 27.645C8.2363 27.646 8.2383 27.647 8.2383 27.649C8.2393 27.649 8.2403 27.649 8.2403 27.65C8.2413 27.651 8.2423 27.653 8.2443 27.654C8.2453 27.656 8.2463 27.657 8.2483 27.659C8.2563 27.668 8.2673 27.672 8.2753 27.681C8.3083 27.716 8.3493 27.741 8.3863 27.77C8.4453 27.817 8.5023 27.862 8.5703 27.894ZM7.3174 11.9185C7.6874 11.3435 8.3164 11.0005 9.0004 11.0005V12.0005C8.8754 12.0005 8.7564 12.0295 8.6464 12.0715C8.6034 12.0875 8.5654 12.1145 8.5254 12.1365C8.4594 12.1725 8.3944 12.2115 8.3394 12.2615C8.3024 12.2935 8.2734 12.3305 8.2424 12.3675C8.2154 12.3995 8.1814 12.4245 8.1584 12.4595L7.3174 11.9185ZM7 14.429V13.429H8V14.429H7ZM7 20.429V19.429H8V20.429H7ZM7 18.429V17.429H8V18.429H7ZM7 16.429V15.429H8V16.429H7ZM12 12V11H13V12H12ZM16 12V11H17V12H16ZM18 12V11H19V12H18ZM20 12V11H21V12H20ZM24 19.713V18.713H25V19.713H24ZM24 23.713V22.713H25V23.713H24ZM24 21.713V20.713H25V21.713H24ZM14 12V11H15V12H14ZM22 11H23C23.189 11 23.379 11.027 23.56 11.08L23.28 12.04C23.252 12.031 23.223 12.024 23.193 12.019C23.191 12.018 23.19 12.018 23.189 12.018C23.187 12.018 23.187 12.018 23.187 12.017C23.186 12.017 23.186 12.017 23.185 12.017H23.183H23.182C23.182 12.016 23.182 12.016 23.181 12.016H23.18C23.18 12.016 23.179 12.016 23.178 12.016C23.178 12.016 23.177 12.016 23.176 12.015H23.174C23.173 12.015 23.172 12.015 23.172 12.015C23.171 12.015 23.17 12.014 23.17 12.014C23.17 12.014 23.17 12.014 23.169 12.014C23.168 12.014 23.168 12.014 23.168 12.014H23.167H23.166C23.166 12.014 23.165 12.014 23.165 12.013C23.164 12.013 23.164 12.013 23.163 12.013H23.162C23.162 12.013 23.162 12.013 23.161 12.013H23.16H23.159L23.158 12.012C23.158 12.012 23.157 12.012 23.156 12.012H23.154C23.153 12.012 23.152 12.012 23.152 12.011H23.151H23.15H23.149H23.148C23.148 12.011 23.147 12.011 23.146 12.011V12.01H23.145C23.143 12.01 23.143 12.01 23.142 12.01H23.141H23.14H23.139H23.138L23.136 12.009H23.135H23.134H23.133H23.131C23.13 12.008 23.129 12.008 23.129 12.008C23.129 12.008 23.128 12.008 23.127 12.008C23.126 12.008 23.125 12.008 23.125 12.008H23.124H23.123C23.123 12.007 23.123 12.007 23.122 12.007C23.121 12.007 23.121 12.007 23.119 12.007H23.118H23.117C23.116 12.007 23.115 12.007 23.113 12.006C23.113 12.006 23.112 12.006 23.111 12.006C23.11 12.006 23.109 12.006 23.109 12.006H23.108C23.107 12.006 23.107 12.006 23.107 12.006H23.106C23.105 12.006 23.105 12.006 23.105 12.005H23.104H23.102C23.101 12.005 23.1 12.005 23.1 12.005C23.1 12.005 23.099 12.005 23.098 12.005H23.096V12.004H23.094C23.094 12.004 23.094 12.004 23.093 12.004H23.092H23.091C23.09 12.004 23.09 12.004 23.09 12.004H23.089C23.088 12.004 23.088 12.004 23.087 12.004H23.086H23.085L23.084 12.003H23.082H23.08C23.08 12.003 23.079 12.003 23.078 12.003H23.076H23.075H23.074H23.073C23.072 12.003 23.072 12.002 23.071 12.002H23.07H23.069H23.068H23.067H23.066C23.065 12.002 23.065 12.002 23.064 12.002H23.062H23.061H23.059H23.057V12.001H23.055H23.054H23.053C23.053 12.001 23.053 12.001 23.052 12.001H23.051H23.049H23.048H23.047H23.046H23.045H23.043C23.042 12.001 23.041 12.001 23.041 12.001H23.039H23.038H23.037H23.036C23.035 12.001 23.035 12 23.035 12H23.033H23.032H23.031H23.029H23.027H23.025H23.023H23.022H23.021H23.02H23.019H23.018H23.016H23.014H23.012H23.01H23.009H23.008H23.007H23.005H23.004H23.002H23H22V11ZM24 15.713V14.713H25V15.713H24ZM25 13V13.713H24V13V12.998V12.997V12.996V12.995V12.993V12.991V12.989V12.988V12.987V12.986V12.984V12.982V12.981V12.979V12.977V12.975V12.972V12.97V12.966V12.965V12.963C24 12.962 24 12.962 23.999 12.961V12.959V12.958V12.954C23.999 12.953 23.999 12.951 23.998 12.95V12.949V12.927C23.994 12.877 23.986 12.828 23.977 12.781C23.976 12.779 23.975 12.778 23.975 12.777V12.776V12.772C23.975 12.772 23.975 12.772 23.974 12.772V12.77C23.974 12.77 23.974 12.77 23.973 12.77V12.768V12.767V12.766V12.765V12.764C23.972 12.764 23.972 12.763 23.972 12.763V12.762C23.971 12.761 23.971 12.761 23.971 12.761V12.76V12.758V12.756C23.971 12.756 23.971 12.756 23.97 12.756C23.97 12.754 23.969 12.753 23.969 12.752V12.751C23.966 12.74 23.963 12.728 23.959 12.717L24.918 12.434C24.973 12.617 25 12.808 25 13ZM24 17.713V16.713H25V17.713H24Z" fill="#121317"/>
</svg>
