<svg width="36" height="36" viewBox="0 0 36 36" fill="none" xmlns="http://www.w3.org/2000/svg">
<path fill-rule="evenodd" clip-rule="evenodd" d="M17.5 28C22.746 28 27 23.747 27 18.5C27 13.253 22.746 9 17.5 9C12.254 9 8 13.253 8 18.5C8 23.747 12.254 28 17.5 28ZM17.5 8C23.289 8 28 12.71 28 18.5C28 24.29 23.289 29 17.5 29C11.711 29 7 24.29 7 18.5C7 12.71 11.711 8 17.5 8ZM16.793 14.707L17.5 14L21.742 18.243L21.035 18.95L18 15.914V23H17V15.915L13.965 18.95L13.258 18.243L16.793 14.707Z" fill="#121317"/>
</svg>
