<svg width="36" height="36" viewBox="0 0 36 36" fill="none" xmlns="http://www.w3.org/2000/svg">
<path fill-rule="evenodd" clip-rule="evenodd" d="M20 8L20.479 10.396C20.875 10.525 21.254 10.687 21.62 10.873L23.656 9.515L26.485 12.343L25.127 14.38C25.313 14.746 25.475 15.125 25.604 15.521L28 16V20L25.604 20.479C25.475 20.875 25.313 21.254 25.127 21.62L26.485 23.657L23.656 26.485L21.62 25.127C21.254 25.313 20.875 25.475 20.479 25.604L20 28H16L15.521 25.604C15.125 25.475 14.746 25.313 14.38 25.127L12.344 26.485L9.515 23.657L10.873 21.62C10.687 21.254 10.525 20.875 10.396 20.479L8 20V16L10.396 15.521C10.525 15.125 10.687 14.746 10.873 14.38L9.515 12.343L12.344 9.515L14.38 10.873C14.746 10.687 15.125 10.525 15.521 10.396L16 8H20ZM19.18 9H16.82L16.501 10.593L16.387 11.166L15.83 11.347C15.501 11.455 15.165 11.595 14.834 11.764L14.313 12.029L13.825 11.705L12.471 10.801L10.801 12.471L11.705 13.825L12.029 14.312L11.764 14.833C11.596 15.165 11.455 15.501 11.348 15.831L11.166 16.386L10.593 16.501L9 16.82V19.18L10.593 19.499L11.166 19.614L11.348 20.169C11.455 20.499 11.596 20.835 11.764 21.167L12.029 21.688L11.705 22.175L10.801 23.529L12.471 25.199L13.825 24.295L14.313 23.971L14.834 24.236C15.165 24.405 15.501 24.545 15.83 24.653L16.387 24.834L16.501 25.407L16.82 27H19.18L19.499 25.407L19.613 24.834L20.17 24.653C20.499 24.545 20.835 24.405 21.166 24.236L21.687 23.971L22.175 24.295L23.529 25.199L25.199 23.529L24.295 22.175L23.971 21.688L24.236 21.167C24.404 20.835 24.545 20.499 24.652 20.169L24.834 19.614L25.407 19.499L27 19.18V16.82L25.407 16.501L24.834 16.386L24.652 15.831C24.545 15.501 24.404 15.165 24.236 14.833L23.971 14.312L24.295 13.825L25.199 12.471L23.529 10.801L22.175 11.705L21.687 12.029L21.166 11.764C20.835 11.595 20.499 11.455 20.17 11.347L19.613 11.166L19.499 10.593L19.18 9ZM18 15C19.654 15 21 16.346 21 18C21 19.654 19.654 21 18 21C16.346 21 15 19.654 15 18C15 16.346 16.346 15 18 15ZM18 16C16.896 16 16 16.896 16 18C16 19.104 16.896 20 18 20C19.104 20 20 19.104 20 18C20 16.896 19.104 16 18 16Z" fill="#121317"/>
</svg>
