<svg width="36" height="36" viewBox="0 0 36 36" fill="none" xmlns="http://www.w3.org/2000/svg">
<path fill-rule="evenodd" clip-rule="evenodd" d="M25.9855 19H20.9952C20.9306 22.3811 20.2148 25.2945 19.1816 26.8337C22.9121 26.085 25.7596 22.8942 25.9855 19ZM25.9855 18C25.7596 14.1058 22.9121 10.915 19.1816 10.1663C20.2148 11.7055 20.9306 14.6189 20.9952 18H25.9855ZM9.01446 18H14.0048C14.0694 14.6189 14.7852 11.7055 15.8184 10.1663C12.0879 10.915 9.24035 14.1058 9.01446 18ZM9.01446 19C9.24035 22.8942 12.0879 26.085 15.8184 26.8337C14.7852 25.2945 14.0694 22.3811 14.0048 19H9.01446ZM19.995 19H15.005C15.0499 21.2518 15.3967 23.3334 15.9635 24.8718C16.4859 26.2897 17.1045 27 17.5 27C17.8955 27 18.5141 26.2897 19.0365 24.8718C19.6033 23.3334 19.9501 21.2518 19.995 19ZM19.995 18C19.9501 15.7482 19.6033 13.6666 19.0365 12.1282C18.5141 10.7103 17.8955 10 17.5 10C17.1045 10 16.4859 10.7103 15.9635 12.1282C15.3967 13.6666 15.0499 15.7482 15.005 18H19.995ZM17.5 28C12.2533 28 8 23.7467 8 18.5C8 13.2533 12.2533 9 17.5 9C22.7467 9 27 13.2533 27 18.5C27 23.7467 22.7467 28 17.5 28Z" fill="#121317"/>
</svg>
