<?xml version="1.0" encoding="UTF-8"?>
<svg width="13px" height="21px" viewBox="0 0 13 21" version="1.1" xmlns="http://www.w3.org/2000/svg" xmlns:xlink="http://www.w3.org/1999/xlink">
    <!-- Generator: Sketch 53.2 (72643) - https://sketchapp.com -->
    <title>Fill 1</title>
    <desc>Created with Sketch.</desc>
    <g id="Design-System" stroke="none" stroke-width="1" fill="none" fill-rule="evenodd">
        <g id="Icon/Attachment" transform="translate(-11.000000, -8.000000)">
            <path d="M19.5,8 C17.015,8 15,10.015 15,12.5 L15,22.5 C15,23.881 16.119,25 17.5,25 C18.881,25 20,23.881 20,22.5 L20,12 L19,12 L19,22.5 C19,23.327 18.327,24 17.5,24 C16.673,24 16,23.327 16,22.5 L16,12.5 C16,10.57 17.57,9 19.5,9 C21.43,9 23,10.57 23,12.5 L23,22.5 C23,25.533 20.532,28 17.5,28 C14.468,28 12,25.533 12,22.5 L12,16 L11,16 L11,22.5 C11,26.09 13.91,29 17.5,29 C21.09,29 24,26.09 24,22.5 L24,12.5 C24,10.015 21.985,8 19.5,8" id="Fill-1"></path>
        </g>
    </g>
</svg>