<svg xmlns="http://www.w3.org/2000/svg" viewBox="0 0 44 44">
  <defs>
    <style>
      .cls-1 {
        fill: none;
      }

      .cls-2, .cls-3 {
        fill: #007aff;
        fill-rule: evenodd;
      }

      .cls-4, .cls-5 {
        stroke: none;
      }

      .cls-5 {
        fill: #f8f8f8;
      }
    </style>
  </defs>
  <g id="Group_1421" data-name="Group 1421" transform="translate(-9 0.25)">
    <rect id="Rectangle_1784" data-name="Rectangle 1784" class="cls-1" width="44" height="44" transform="translate(9 -0.25)"/>
    <g id="Group_1409" data-name="Group 1409" transform="translate(-10125.001 -3625.25)">
      <path id="Path_1325" data-name="Path 1325" class="cls-2" d="M150-193.857V-195h22v1.143Zm0,6.429v-1.143h22v1.143ZM150-181v-1.143h22V-181Z" transform="translate(9995.001 3836)"/>
      <g id="Path_1327" data-name="Path 1327" class="cls-3" transform="translate(10027.001 3731)">
        <path class="cls-4" d="M 117.2499923706055 -75.49275970458984 L 117.2499923706055 -76.99246215820312 L 117.2499923706055 -88 L 117.2499923706055 -89.50029754638672 L 118.4500885009766 -88.59992980957031 L 125.7884368896484 -83.09433746337891 L 126.5883407592773 -82.49420928955078 L 125.7882461547852 -81.89434051513672 L 118.4498977661133 -76.39238739013672 L 117.2499923706055 -75.49275970458984 Z"/>
        <path class="cls-5" d="M 117.9999923706055 -88 L 117.9999923706055 -76.99246215820312 L 125.3383407592773 -82.49440765380859 L 117.9999923706055 -88 M 116.4999923706055 -91.00060272216797 L 118.9001770019531 -89.19985961914062 L 126.238525390625 -83.69426727294922 L 127.8383407592773 -82.49401092529297 L 126.238151550293 -81.29427337646484 L 118.8997955322266 -75.79232025146484 L 116.4999923706055 -73.99304962158203 L 116.4999923706055 -76.99246215820312 L 116.4999923706055 -88 L 116.4999923706055 -91.00060272216797 Z"/>
      </g>
    </g>
  </g>
</svg>
