<?xml version="1.0" encoding="UTF-8"?>
<svg width="36px" height="36px" viewBox="0 0 36 36" version="1.1" xmlns="http://www.w3.org/2000/svg" xmlns:xlink="http://www.w3.org/1999/xlink">
    <!-- Generator: Sketch 53.2 (72643) - https://sketchapp.com -->
    <title>Icon/Info</title>
    <desc>Created with Sketch.</desc>
    <g id="Icon/Info" stroke="none" stroke-width="1" fill="none" fill-rule="evenodd">
        <path d="M17,15 L19,15 L19,24 L17,24 L17,15 Z M17,12 L19,12 L19,14 L17,14 L17,12 Z M18,28 C23.5228475,28 28,23.5228475 28,18 C28,12.4771525 23.5228475,8 18,8 C12.4771525,8 8,12.4771525 8,18 C8,23.5228475 12.4771525,28 18,28 Z M18,29 C11.9248678,29 7,24.0751322 7,18 C7,11.9248678 11.9248678,7 18,7 C24.0751322,7 29,11.9248678 29,18 C29,24.0751322 24.0751322,29 18,29 Z" id="Combined-Shape" fill="#121317"></path>
    </g>
</svg>