<svg xmlns="http://www.w3.org/2000/svg" xmlns:xlink="http://www.w3.org/1999/xlink" viewBox="0 0 44 44">
  <defs>
    <style>
      .cls-1, .cls-4 {
        fill: #007aff;
      }

      .cls-1 {
        clip-rule: evenodd;
      }

      .cls-2 {
        fill: none;
      }

      .cls-3 {
        clip-path: url(#clip-path);
      }

      .cls-5 {
        clip-path: url(#clip-path-2);
      }
    </style>
    <clipPath id="clip-path">
      <path id="Path_60" data-name="Path 60" class="cls-1" d="M77-77.485H98V-79H77Z" transform="translate(-77 79)"/>
    </clipPath>
    <clipPath id="clip-path-2">
      <path id="Path_62" data-name="Path 62" class="cls-1" d="M79-84.425a7.531,7.531,0,0,0,7.47,7.575,7.531,7.531,0,0,0,7.47-7.575A7.531,7.531,0,0,0,86.47-92,7.531,7.531,0,0,0,79-84.425Zm7.47-6.06a6.019,6.019,0,0,1,5.976,6.06,6.019,6.019,0,0,1-5.976,6.06,6.019,6.019,0,0,1-5.976-6.06,6.019,6.019,0,0,1,5.976-6.06" transform="translate(-79 92)"/>
    </clipPath>
  </defs>
  <g id="Group_1424" data-name="Group 1424" transform="translate(-197 0.25)">
    <rect id="Rectangle_1787" data-name="Rectangle 1787" class="cls-2" width="44" height="44" transform="translate(197 -0.25)"/>
    <g id="Group_1412" data-name="Group 1412" transform="translate(850.999 -580.25)">
      <g id="Group_36" data-name="Group 36" class="cls-3" transform="translate(-641.999 611.485)">
        <path id="Path_59" data-name="Path 59" class="cls-4" d="M72-84h36v16.666H72Z" transform="translate(-79.5 76.425)"/>
      </g>
      <g id="Group_37" data-name="Group 37" class="cls-5" transform="translate(-638.969 592)">
        <path id="Path_61" data-name="Path 61" class="cls-4" d="M74-97H103.88v30.3H74Z" transform="translate(-81.47 89.425)"/>
      </g>
    </g>
  </g>
</svg>
