<?xml version="1.0" encoding="UTF-8"?>
<svg width="21px" height="21px" viewBox="0 0 21 21" version="1.1" xmlns="http://www.w3.org/2000/svg" xmlns:xlink="http://www.w3.org/1999/xlink">
    <!-- Generator: Sketch 53.2 (72643) - https://sketchapp.com -->
    <title>Combined Shape 2</title>
    <desc>Created with Sketch.</desc>
    <g id="Design-System" stroke="none" stroke-width="1" fill="none" fill-rule="evenodd">
        <g id="Icon/Send" transform="translate(-8.000000, -7.000000)" fill="#121317">
            <g id="Combined-Shape-2" transform="translate(8.000000, 7.000000)">
                <path d="M10.5,20 C15.746,20 20,15.747 20,10.5 C20,5.253 15.746,1 10.5,1 C5.254,1 1,5.253 1,10.5 C1,15.747 5.254,20 10.5,20 Z M10.5,0 C16.289,0 21,4.71 21,10.5 C21,16.29 16.289,21 10.5,21 C4.711,21 0,16.29 0,10.5 C0,4.71 4.711,0 10.5,0 Z M9.793,6.707 L10.5,6 L14.742,10.243 L14.035,10.95 L11,7.914 L11,15 L10,15 L10,7.915 L6.965,10.95 L6.258,10.243 L9.793,6.707 Z" id="Combined-Shape"></path>
            </g>
        </g>
    </g>
</svg>